<svg width="34" height="38" viewBox="0 0 34 38" fill="none" xmlns="http://www.w3.org/2000/svg">
<g clip-path="url(#clip0_1_43)">
<path d="M9 8.71436C9 4.29578 12.5786 0.714355 17 0.714355C21.4214 0.714355 25 4.29578 25 8.71436V12.1429H29.5714C31.4643 12.1429 33 13.6786 33 15.5715V30.4286C33 34.2144 29.9286 37.2858 26.1429 37.2858H7.85714C4.07 37.2858 1 34.2144 1 30.4286V15.5715C1 13.6786 2.535 12.1429 4.42857 12.1429H9V8.71436ZM12.4286 12.1429H21.5714V8.71436C21.5714 6.18936 19.5214 4.14293 17 4.14293C14.4786 4.14293 12.4286 6.18936 12.4286 8.71436V12.1429ZM10.7143 19.0001C11.6643 19.0001 12.4286 18.2358 12.4286 17.2858C12.4286 16.3358 11.6643 15.5715 10.7143 15.5715C9.76429 15.5715 9 16.3358 9 17.2858C9 18.2358 9.76429 19.0001 10.7143 19.0001ZM23.2857 15.5715C22.3357 15.5715 21.5714 16.3358 21.5714 17.2858C21.5714 18.2358 22.3357 19.0001 23.2857 19.0001C24.2357 19.0001 25 18.2358 25 17.2858C25 16.3358 24.2357 15.5715 23.2857 15.5715Z" fill="white"/>
</g>
<defs>
<clipPath id="clip0_1_43">
<rect width="32" height="36.5714" fill="white" transform="translate(1 0.714355)"/>
</clipPath>
</defs>
</svg>
